<svg width="21" height="24" viewBox="0 0 21 24" fill="none" xmlns="http://www.w3.org/2000/svg">
<g clip-path="url(#clip0_13721_517)">
<path fill-rule="evenodd" clip-rule="evenodd" d="M19.0485 0H1.90243C0.512961 0 6.48971e-05 0.505261 6.48971e-05 1.87831V18.4421C-0.000742736 18.5868 0.00598755 18.7314 0.020268 18.8754C0.0155445 19.2104 0.128723 19.5362 0.339907 19.7963C0.366437 19.8291 0.655692 20.0413 0.655692 20.0413C0.809803 20.1171 0.915872 20.1677 1.09145 20.2408L9.5331 23.7335C9.82018 23.9016 10.1454 23.9934 10.478 24C10.809 23.9918 11.1325 23.8992 11.4178 23.731L19.8595 20.2384C20.0338 20.1689 20.1399 20.112 20.2953 20.0388C20.2953 20.0388 20.5832 19.8266 20.611 19.7937C20.8222 19.5338 20.9354 19.2078 20.9306 18.8729C20.9447 18.7288 20.9514 18.5843 20.9508 18.4396V1.87831C20.9508 0.506521 20.4456 0 19.0561 0" fill="white"/>
<path d="M17.9016 16.6469V16.7265L17.894 16.7644L17.8826 16.8022L17.875 16.8376L17.8636 16.8755L17.8472 16.9109L17.8321 16.9412L17.8157 16.9752L17.7968 17.0056L17.7778 17.0359L17.7551 17.0663L17.7361 17.0965L17.7134 17.1231L17.6868 17.1496L17.6642 17.1724L17.6338 17.1989L17.6073 17.2216L17.5769 17.2443L17.5467 17.2633L17.5163 17.2861L17.481 17.305L17.4456 17.3202L17.4102 17.339L17.3723 17.3542L17.3345 17.3694L17.2966 17.3808L17.2586 17.3922L17.2233 17.4035L17.1853 17.4111L17.15 17.4187L17.1146 17.4263L17.0768 17.4339H16.5222L16.4843 17.4263H16.4465L16.4085 17.4187L16.3706 17.4111L16.3327 17.4035L16.2949 17.3959L16.2569 17.3846L16.2216 17.377L16.1837 17.3656L16.1458 17.3542L16.1104 17.339L16.0725 17.3277L16.0371 17.3164L15.9993 17.3012L15.9638 17.2861L15.9285 17.2709L15.8931 17.2519L15.8578 17.2367L15.8224 17.2178L15.7922 17.1989L15.7567 17.18L15.7265 17.161L15.6961 17.142L15.6658 17.1193L15.6355 17.0965L15.6052 17.0739L15.5748 17.0511L15.5483 17.0283L15.5181 17.0018L15.542 16.9714L15.5686 16.945L15.5925 16.9147L15.619 16.8843L15.643 16.8578L15.6658 16.8275L15.6923 16.7972L15.7151 16.7706L15.7416 16.7403L15.7643 16.7139L15.7908 16.6835L15.8136 16.6532L15.8376 16.6266L15.8641 16.5964L15.8881 16.566L15.9147 16.5395L15.9386 16.5091L15.969 16.5319L16.0044 16.5547L16.0346 16.5774L16.0701 16.6002L16.1003 16.6191L16.1357 16.6418L16.166 16.6608L16.2014 16.6759L16.2317 16.6949L16.2671 16.7101L16.3024 16.7252L16.3378 16.7403L16.3732 16.7517L16.4085 16.7668L16.4465 16.7782L16.4843 16.7896L16.5196 16.801L16.5576 16.8086L16.5955 16.8162L16.6333 16.8237H16.6763L16.7142 16.8313H16.9226L16.9605 16.8237L16.9959 16.8162L17.0313 16.8086L17.0616 16.7972L17.0882 16.782L17.1184 16.7593L17.1412 16.7328L17.1576 16.7025L17.1689 16.6683V16.5749L17.1525 16.537L17.1336 16.5105L17.107 16.4877L17.0768 16.465L17.0464 16.4498L17.0111 16.4346L16.9731 16.4196L16.9264 16.4006L16.8998 16.393L16.8696 16.3854L16.8343 16.374L16.7989 16.3665L16.761 16.3551L16.723 16.3475L16.6801 16.3361L16.6423 16.3285L16.5993 16.3171L16.5614 16.3096L16.5234 16.2983L16.4856 16.2907L16.4477 16.2793L16.4123 16.2679L16.3744 16.2604L16.339 16.249L16.3037 16.2376L16.2683 16.2262L16.2254 16.211L16.1874 16.1959L16.1496 16.1808L16.1117 16.1656L16.0763 16.1467L16.0385 16.1277L16.0081 16.1087L15.9728 16.0898L15.9424 16.0671L15.9121 16.0482L15.8857 16.0254L15.859 15.9989L15.8325 15.9723L15.8086 15.9459L15.7858 15.9193L15.7668 15.8928L15.7479 15.8624L15.7289 15.8284L15.7125 15.8018L15.7011 15.7715L15.6899 15.7361L15.6785 15.7058L15.6709 15.668L15.6633 15.6326V15.3142L15.6709 15.2802L15.6785 15.2448L15.6899 15.2095L15.6973 15.1753L15.7137 15.14L15.7302 15.1058L15.7466 15.0717L15.7656 15.0363L15.7846 15.0023L15.8072 14.9719L15.8313 14.9416L15.8578 14.9112L15.8843 14.8848L15.9109 14.8545L15.9411 14.8279L15.9678 14.8089L15.998 14.7862L16.0283 14.7635L16.0587 14.7446L16.094 14.7256L16.1294 14.7104L16.1648 14.6915L16.2001 14.6763L16.238 14.6649L16.2759 14.6499L16.3113 14.6385L16.3416 14.6309L16.377 14.6233L16.4123 14.6157L16.4503 14.6081L16.4856 14.6006H16.9706L17.0085 14.6081H17.0515L17.0894 14.6157L17.1248 14.6233L17.1627 14.6309L17.2005 14.6385L17.2359 14.6461L17.2738 14.6575L17.3092 14.6687L17.3445 14.6763L17.3825 14.6915L17.4178 14.7029L17.4532 14.718L17.4886 14.7332L17.5264 14.7484L17.5619 14.7673L17.5921 14.7824L17.6275 14.8014L17.6628 14.8203L17.6932 14.8393L17.7285 14.8621L17.7589 14.881L17.7892 14.9037L17.8194 14.9264L17.8498 14.9492L17.827 14.9795L17.8082 15.0099L17.7841 15.0401L17.7601 15.0704L17.7373 15.1046L17.7184 15.1349L17.6944 15.1652L17.6704 15.1955L17.6514 15.2259L17.6275 15.2561L17.6035 15.2864L17.5845 15.3168L17.5619 15.3521L17.5378 15.3825L17.515 15.4127L17.4961 15.4431L17.4734 15.4734L17.443 15.4506L17.4077 15.4317L17.3775 15.4127L17.3458 15.3901L17.3104 15.3749L17.2788 15.3559L17.2435 15.3408L17.2132 15.3256L17.1777 15.3104L17.1475 15.2952L17.1122 15.284L17.0818 15.2688L17.0389 15.2574L17.0009 15.246L16.9631 15.2347L16.9252 15.2271L16.8872 15.2195L16.8494 15.2119H16.6536L16.6106 15.2195L16.5728 15.2271L16.5374 15.2347L16.507 15.2498L16.4805 15.265L16.4451 15.2952L16.4211 15.3307L16.4047 15.3661V15.462L16.4237 15.5038L16.4401 15.5264L16.4667 15.5529L16.502 15.5719L16.5324 15.5909L16.5702 15.6061L16.6131 15.6212L16.6587 15.6364L16.689 15.6439L16.7192 15.6552L16.7546 15.6628L16.7901 15.6742L16.8279 15.6818L16.8708 15.6932L16.9138 15.7046L16.9567 15.7159L16.9997 15.7235L17.0376 15.7349L17.0806 15.7463L17.1184 15.7539L17.1563 15.7651L17.1943 15.7765L17.2296 15.7879L17.2674 15.7993L17.3028 15.8107L17.3382 15.822L17.3811 15.8372L17.4191 15.8562L17.457 15.8714L17.4948 15.8902L17.5303 15.9092L17.5655 15.9281L17.5959 15.9471L17.6262 15.9699L17.6566 15.9888L17.6868 16.0153L17.7171 16.0418L17.7437 16.0722L17.7703 16.0987L17.7929 16.1289L17.817 16.1631L17.8358 16.1934L17.8548 16.2288L17.87 16.2591L17.8814 16.2932L17.8927 16.3285L17.9003 16.3639L17.9079 16.4018L17.9155 16.4398V16.6116L17.9016 16.6469ZM15.1972 17.4048H12.9904V14.6259H15.2174V15.2574H13.7268V15.7084H15.067V16.2995H13.7268V16.7732H15.2426V17.4048H15.1972ZM12.3803 17.4048H11.6754V15.7627L11.6565 15.793L11.6338 15.8284L11.6149 15.8586L11.5921 15.889L11.5731 15.9231L11.5492 15.9533L11.5302 15.9837L11.5112 16.0191L11.4885 16.0494L11.4696 16.0797L11.4456 16.1101L11.4267 16.1455L11.4027 16.1757L11.3837 16.206L11.3647 16.2414L11.3408 16.2717L11.3218 16.3021L11.2978 16.3361L11.2788 16.3665L11.2549 16.3968L11.2359 16.4322L11.2169 16.4624L11.1929 16.4927L11.174 16.5281L11.15 16.5585L11.131 16.5888L11.107 16.6191L11.0881 16.6532L11.0691 16.6835L11.0451 16.7139L11.0261 16.7492L11.0022 16.7795L10.9832 16.8098L10.9606 16.8452L10.9416 16.8755H10.9252L10.9011 16.8401L10.8822 16.8098L10.8595 16.7744L10.8405 16.7441L10.8178 16.7101L10.7988 16.6797L10.7762 16.6444L10.7572 16.614L10.7332 16.58L10.7142 16.5496L10.6902 16.5143L10.6713 16.4839L10.6473 16.4486L10.6283 16.4182L10.6056 16.3829L10.5866 16.3525L10.5638 16.3171L10.5399 16.2869L10.5209 16.2516L10.4983 16.2212L10.4793 16.1858L10.4565 16.1555L10.4376 16.1201L10.4148 16.0898L10.396 16.0544L10.3718 16.0242L10.353 15.9888L10.3289 15.9585L10.31 15.9243L10.2859 15.894L10.2671 15.8586L10.2443 15.8284L10.2254 15.793L10.2026 15.7627V17.4048H9.46999V14.6259H10.2582L10.2771 14.6561L10.2961 14.6903L10.3189 14.7206L10.3378 14.756L10.3567 14.7862L10.3756 14.8217L10.3946 14.8519L10.4174 14.8873L10.4363 14.9176L10.4553 14.948L10.4743 14.982L10.4931 15.0123L10.5159 15.0465L10.5348 15.0768L10.5538 15.1108L10.5728 15.1412L10.5968 15.1715L10.6157 15.2057L10.6346 15.2359L10.6535 15.2713L10.6725 15.3016L10.6965 15.3357L10.7155 15.3661L10.7344 15.4001L10.7534 15.4305L10.7724 15.4608L10.7963 15.4962L10.8153 15.5264L10.8342 15.5619L10.8531 15.5921L10.8721 15.6275L10.8961 15.6578L10.915 15.692L10.934 15.7222L10.953 15.692L10.9719 15.6578L10.9946 15.6275L11.0135 15.5921L11.0325 15.5619L11.0515 15.5264L11.0755 15.4962L11.0944 15.4608L11.1134 15.4305L11.1324 15.4001L11.1563 15.3661L11.1753 15.3357L11.1942 15.3016L11.2131 15.2713L11.2371 15.2359L11.2561 15.2057L11.275 15.1715L11.294 15.1412L11.313 15.1108L11.3356 15.0768L11.3546 15.0465L11.3736 15.0123L11.3925 14.982L11.4165 14.948L11.4355 14.9176L11.4544 14.8873L11.4734 14.8519L11.4962 14.8217L11.515 14.7862L11.534 14.756L11.5529 14.7206L11.5769 14.6903L11.5959 14.6561L11.6149 14.6259H12.403V17.4048H12.3803ZM7.91125 16.2591L7.89987 16.2238L7.8847 16.1858L7.8683 16.1505L7.85692 16.1151L7.84052 16.0797L7.82535 16.0418L7.81397 16.0064L7.7988 15.9711L7.78362 15.9369L7.77237 15.9016L7.75719 15.8638L7.74581 15.8284L7.72941 15.793L7.71289 15.7577L7.70164 15.7222L7.68512 15.6844L7.66872 15.649L7.65734 15.6149L7.64094 15.5795L7.62577 15.5416L7.61439 15.5062L7.59799 15.4708L7.58282 15.5062L7.57144 15.5416L7.55626 15.5795L7.53987 15.6149L7.52848 15.649L7.51209 15.6844L7.49569 15.7222L7.48052 15.7577L7.46914 15.793L7.45396 15.8284L7.43756 15.8638L7.42618 15.9016L7.40979 15.9369L7.39339 15.9711L7.38201 16.0064L7.36549 16.0418L7.35044 16.0797L7.33392 16.1151L7.32266 16.1505L7.30614 16.1858L7.28974 16.2238L7.27836 16.2591L7.26319 16.2945H7.91505L7.91125 16.2591ZM9.12136 17.4048H8.36341L8.34835 17.3694L8.33697 17.334L8.32046 17.2987L8.3054 17.2607L8.29402 17.2267L8.27885 17.1926L8.26245 17.1572L8.25107 17.1218L8.23467 17.0865L8.21816 17.0511L8.20677 17.0157L8.19172 16.9778L8.1752 16.9424L8.16395 16.9071L8.14743 16.8717H7.04219L7.02702 16.9071L7.01564 16.9424L6.99924 16.9778L6.98407 17.0157L6.97269 17.0511L6.95751 17.0865L6.94112 17.1218L6.92973 17.1572L6.91334 17.1926L6.89694 17.2267L6.88556 17.2607L6.87039 17.2987L6.85399 17.334L6.84261 17.3694L6.82621 17.4048H6.04807L6.06447 17.3694L6.08086 17.334L6.09616 17.2987L6.11256 17.2607L6.12394 17.2267L6.14033 17.1926L6.15673 17.1572L6.17191 17.1218L6.1883 17.0865L6.2047 17.0485L6.21987 17.0132L6.23505 16.979L6.24643 16.9437L6.2616 16.9083L6.27665 16.8729L6.29317 16.8351L6.30957 16.7998L6.32597 16.7644L6.34114 16.7303L6.35754 16.6949L6.36892 16.6595L6.38409 16.6216L6.40049 16.5875L6.41689 16.5521L6.43206 16.5167L6.44846 16.4814L6.46498 16.446L6.48003 16.4082L6.49141 16.374L6.50658 16.3387L6.52298 16.3033L6.5395 16.2679L6.5559 16.2326L6.57107 16.1946L6.58747 16.1593L6.60387 16.1239L6.61525 16.0886L6.63164 16.0544L6.64682 16.0191L6.66322 15.9812L6.67961 15.9459L6.69479 15.9105L6.71131 15.875L6.7277 15.841L6.73908 15.8056L6.75548 15.7715L6.77188 15.7336L6.78705 15.6995L6.80345 15.6642L6.81985 15.63L6.83502 15.5959L6.85142 15.5605L6.8628 15.5227L6.8792 15.4886L6.89572 15.4532L6.91077 15.4179L6.92729 15.3825L6.94369 15.3471L6.96008 15.3092L6.97526 15.275L6.98664 15.2397L7.00303 15.2043L7.01943 15.169L7.03583 15.1336L7.051 15.0957L7.06618 15.0603L7.08257 15.0249L7.09897 14.9896L7.11035 14.9555L7.12687 14.9202L7.14204 14.8822L7.15844 14.8481L7.17484 14.8127L7.19001 14.7774L7.20641 14.742L7.22281 14.7079L7.23419 14.6701L7.25059 14.6347L7.2671 14.5993L7.28216 14.564H7.99593L8.01233 14.5993L8.0275 14.6347L8.0439 14.6701L8.0603 14.7079L8.07168 14.742L8.08808 14.7774L8.10325 14.8127L8.11965 14.8481L8.13605 14.8822L8.15257 14.9202L8.16762 14.9555L8.18414 14.9896L8.19552 15.0249L8.21191 15.0603L8.22831 15.0957L8.24348 15.1336L8.25866 15.169L8.27506 15.2043L8.29145 15.2397L8.30663 15.275L8.31801 15.3092L8.3344 15.3471L8.34958 15.3825L8.36598 15.4179L8.38237 15.4532L8.39755 15.4886L8.41394 15.5227L8.43046 15.5605L8.44184 15.5959L8.4569 15.63L8.47342 15.6642L8.48981 15.6995L8.50499 15.7336L8.52138 15.7715L8.53778 15.8056L8.55296 15.841L8.56434 15.875L8.57951 15.9105L8.59591 15.9459L8.6123 15.9812L8.62748 16.0191L8.64388 16.0544L8.66027 16.0886L8.67545 16.1239L8.68683 16.1593L8.70322 16.1946L8.71962 16.2326L8.73479 16.2679L8.75131 16.3033L8.76771 16.3387L8.78289 16.374L8.79928 16.4082L8.81066 16.446L8.82572 16.4814L8.84223 16.5167L8.85863 16.5521L8.87381 16.5875L8.88898 16.6216L8.90538 16.6595L8.92177 16.6949L8.93316 16.7303L8.94955 16.7644L8.96473 16.7998L8.98112 16.8351L8.99752 16.8729L9.01404 16.9083L9.02909 16.9437L9.04561 16.979L9.05699 17.0132L9.07339 17.0485L9.08856 17.0865L9.10496 17.1218L9.12013 17.1572L9.13653 17.1926L9.15293 17.2267L9.1681 17.2607L9.17948 17.2987L9.19466 17.334L9.20983 17.3694L9.22623 17.4048H9.12136ZM5.74117 17.0498L5.71082 17.0725L5.68427 17.0915L5.6527 17.1143L5.62247 17.1332L5.59212 17.156L5.56055 17.1748L5.5302 17.1938L5.49484 17.2128L5.45948 17.2317L5.42411 17.2507L5.38875 17.2659L5.35338 17.2848L5.31545 17.2999L5.28008 17.3151L5.24215 17.3302L5.20678 17.3454L5.17142 17.3568L5.13605 17.3682L5.10069 17.3795L5.06276 17.3909L5.02751 17.4023L4.98958 17.4098L4.95421 17.4174L4.91628 17.4249L4.87835 17.4325H4.27335L4.23542 17.4249L4.19749 17.4174L4.16224 17.4098L4.12431 17.4023L4.08895 17.3909L4.05101 17.3833L4.01565 17.372L3.98028 17.3568L3.94492 17.3454L3.90698 17.3302L3.87162 17.3151L3.83625 17.2999L3.80089 17.2848L3.76552 17.2659L3.73518 17.2469L3.69993 17.2279L3.66959 17.209L3.63924 17.19L3.60767 17.1674L3.57732 17.1446L3.5471 17.1218L3.52054 17.0991L3.49399 17.0763L3.46743 17.0498L3.44088 17.0271L3.41445 17.0006L3.3879 16.974L3.36391 16.9475L3.34115 16.9172L3.31717 16.8907L3.2982 16.8603L3.27544 16.83L3.25647 16.7998L3.23763 16.7694L3.21866 16.7341L3.19969 16.7037L3.18452 16.6683L3.16812 16.633L3.15295 16.5976L3.13655 16.5635L3.12517 16.5332L3.10865 16.4979L3.10119 16.4624L3.0898 16.4284L3.08222 16.3904L3.07084 16.3551L3.06325 16.3171V16.2818L3.05566 16.244V15.817L3.06325 15.7791V15.7412L3.07084 15.7058L3.08222 15.668L3.0898 15.63L3.10119 15.5947L3.11257 15.5567L3.12395 15.5214L3.139 15.4834L3.15552 15.4494L3.17191 15.4141L3.18709 15.3787L3.20214 15.3433L3.22111 15.308L3.24007 15.2776L3.25904 15.2473L3.27801 15.2169L3.29697 15.1867L3.31974 15.1564L3.3436 15.126L3.36636 15.0957L3.39047 15.0692L3.4169 15.0427L3.44088 15.0161L3.46743 14.9896L3.49399 14.9631L3.52054 14.9404L3.55077 14.9138L3.57732 14.8911L3.60767 14.8683L3.63802 14.8495L3.66836 14.8267L3.69859 14.8077L3.72894 14.7888L3.7643 14.7698L3.79967 14.7508L3.83503 14.732L3.87039 14.7168L3.90576 14.7016L3.94369 14.6827L3.97392 14.6713L4.01185 14.6599L4.04722 14.6447L4.08258 14.6371L4.11795 14.6259L4.15588 14.6183L4.19125 14.6069L4.22918 14.5993H4.26699L4.30493 14.5917H4.7862L4.82915 14.5993H4.86452L4.90245 14.6069L4.94026 14.6145L4.97563 14.622L5.01099 14.6296L5.04636 14.6371L5.08172 14.6485L5.11709 14.6561L5.14743 14.6675L5.1828 14.6789L5.21816 14.694L5.25353 14.7092L5.28889 14.7244L5.32426 14.7432L5.35962 14.7584L5.38997 14.7774L5.42533 14.7963L5.45568 14.8153L5.49105 14.8343L5.52139 14.857L5.55174 14.8759L5.58197 14.8986L5.61231 14.9214L5.64266 14.948L5.67289 14.9707L5.6489 15.0009L5.62247 15.0275L5.59836 15.0578L5.57193 15.0882L5.54783 15.1184L5.52507 15.145L5.49863 15.1753L5.47587 15.2057L5.45189 15.2321L5.42533 15.2624L5.40135 15.2928L5.3748 15.3231L5.35081 15.3496L5.32805 15.3799L5.30162 15.4103L5.27886 15.4406L5.2523 15.467L5.22954 15.4974L5.1992 15.4746L5.16897 15.4481L5.13862 15.4292L5.10828 15.4065L5.07805 15.3875L5.0477 15.3685L5.01736 15.3496L4.98199 15.3307L4.95042 15.3156L4.92007 15.3004L4.88973 15.289L4.85436 15.2776L4.819 15.2662L4.78363 15.2587L4.74582 15.2511L4.70789 15.2435H4.42999L4.39205 15.2511L4.35669 15.2587L4.32132 15.27L4.28596 15.2814L4.25059 15.2966L4.21523 15.3118L4.18488 15.3307L4.15466 15.3496L4.12309 15.3685L4.09653 15.3913L4.06998 15.4141L4.04342 15.4368L4.01944 15.4633L3.99289 15.4898L3.9689 15.5202L3.94994 15.5467L3.93097 15.5769L3.91212 15.6123L3.89316 15.6426L3.87676 15.678L3.86538 15.7134L3.84886 15.7487L3.8376 15.7867L3.83001 15.8246L3.82243 15.8586L3.81484 15.9004V16.177L3.82243 16.211L3.83001 16.2464L3.8376 16.2806L3.84886 16.3159L3.86024 16.3463L3.87676 16.3841L3.89316 16.4196L3.91212 16.4549L3.93097 16.4852L3.94994 16.5155L3.9727 16.5458L3.99668 16.5724L4.02323 16.5988L4.04722 16.6254L4.07377 16.6481L4.10534 16.6709L4.13569 16.6937L4.16592 16.7125L4.19749 16.7315L4.23297 16.7467L4.26834 16.7618L4.3037 16.777L4.34151 16.7884L4.37945 16.7998L4.41738 16.8073L4.4552 16.8149H4.74961L4.78743 16.8073L4.82536 16.7998L4.8633 16.7884L4.89866 16.7808L4.93402 16.7656L4.96425 16.7504L4.99961 16.7353L5.02617 16.7201L5.07169 16.6999V16.3525H4.5083V15.7981H5.7791V17.0372L5.74117 17.0498Z" fill="white"/>
<path d="M4.51091 8.34067H6.18075V7.06363H4.51091V4.46158H6.24903V3.18701H3.09106V12.3867H6.27179V11.1121H4.51091V8.34067Z" fill="white"/>
<path d="M16.4678 8.61654V10.6931C16.4678 11.062 16.296 11.2312 15.9385 11.2312H15.6732C15.5996 11.2435 15.5241 11.2382 15.453 11.2156C15.3818 11.193 15.3169 11.1539 15.2639 11.1012C15.2108 11.0487 15.171 10.9842 15.1478 10.9133C15.1245 10.8424 15.1184 10.7669 15.1301 10.6931V4.88258C15.1301 4.51376 15.3019 4.34452 15.6732 4.34452H15.912C15.9849 4.33351 16.0593 4.34 16.1292 4.36337C16.1991 4.38662 16.2625 4.42614 16.3142 4.47852C16.3659 4.53101 16.4045 4.59501 16.4268 4.66525C16.4491 4.73537 16.4544 4.80989 16.4426 4.88258V6.68507H17.832V4.80561C17.8654 4.57421 17.8441 4.33828 17.7697 4.11667C17.6953 3.89514 17.57 3.69411 17.4038 3.52976C17.2376 3.36531 17.0351 3.24215 16.8126 3.17019C16.5903 3.09824 16.354 3.07948 16.1229 3.11543H15.4333C15.2003 3.08071 14.9624 3.10077 14.7386 3.17401C14.5147 3.24724 14.311 3.37163 14.1436 3.53733C13.9764 3.70326 13.8502 3.90589 13.7751 4.12916C13.6998 4.35236 13.6777 4.59 13.7103 4.82323V10.7601C13.6777 10.9933 13.6998 11.2311 13.7751 11.4543C13.8502 11.6775 13.9764 11.8801 14.1436 12.046C14.311 12.2117 14.5147 12.3361 14.7386 12.4094C14.9624 12.4825 15.2003 12.5026 15.4333 12.4678H16.1356C16.3685 12.5026 16.6064 12.4825 16.8302 12.4094C17.0542 12.3361 17.2579 12.2117 17.4253 12.046C17.5925 11.8801 17.7186 11.6775 17.7938 11.4543C17.869 11.2311 17.8912 10.9933 17.8585 10.7601V8.61898L16.4678 8.61654Z" fill="white"/>
<path d="M11.5454 12.3901H12.9639V3.19043H11.5454V12.3901Z" fill="white"/>
<path d="M9.48896 7.27174C9.48896 7.64068 9.31716 7.80991 8.95972 7.80991H8.37614V4.41957H8.95972C9.31838 4.41957 9.48896 4.59137 9.48896 4.95774V7.27174ZM9.18328 3.18421H6.95764V12.3838H8.37614V9.04523H9.18451C9.4175 9.07998 9.65538 9.05991 9.8792 8.98673C10.1031 8.91344 10.3069 8.78911 10.4743 8.62342C10.6414 8.45749 10.7676 8.25485 10.8427 8.03165C10.918 7.80844 10.9401 7.57081 10.9075 7.33745V4.89203C10.941 4.65794 10.9192 4.41932 10.844 4.19514C10.7687 3.97096 10.6422 3.76754 10.4743 3.60105C10.3069 3.43535 10.1031 3.31097 9.8792 3.23773C9.65538 3.16449 9.4175 3.14444 9.18451 3.17915" fill="white"/>
<path fill-rule="evenodd" clip-rule="evenodd" d="M6.43726 20.7061H14.5492L10.4111 22.0576L6.43726 20.7061Z" fill="white"/>
<path fill-rule="evenodd" clip-rule="evenodd" d="M17.8799 1.60303H3.07185C1.87181 1.60303 1.42971 2.04639 1.42971 3.24513V17.7336C1.42924 17.8602 1.43511 17.9866 1.44737 18.1125C1.44347 18.4051 1.54124 18.69 1.724 18.9184C1.748 18.9462 1.99684 19.132 1.99684 19.132C2.13074 19.1975 2.22167 19.2443 2.37578 19.3062L9.66802 22.3605C9.91398 22.5075 10.1938 22.5884 10.4803 22.5955C10.7666 22.5884 11.0465 22.5075 11.2925 22.3605L18.5847 19.3062C18.7363 19.2456 18.8272 19.1937 18.9636 19.132C18.9636 19.132 19.2163 18.9475 19.2365 18.9184C19.4192 18.69 19.517 18.4051 19.5131 18.1125C19.5254 17.9866 19.5313 17.8602 19.5308 17.7336V3.24513C19.5308 2.04387 19.0873 1.60303 17.8886 1.60303" fill="#2F2D2E"/>
<path d="M16.8908 16.1696V16.2403L16.8845 16.2745L16.8744 16.3086L16.8681 16.3388L16.858 16.373L16.8441 16.4033L16.8302 16.4299L16.8162 16.4601L16.7998 16.4866L16.7834 16.5132L16.7632 16.5398L16.7468 16.5662L16.7265 16.5903L16.7026 16.6143L16.6824 16.6345L16.6558 16.6584L16.6318 16.6786L16.6054 16.6988L16.5788 16.7153L16.5523 16.7355L16.5219 16.7519L16.4917 16.7658L16.4626 16.7823L16.4284 16.7961L16.3957 16.8101L16.3615 16.8201L16.3287 16.8303L16.2984 16.8403L16.2656 16.8467L16.2352 16.853L16.2062 16.8593L16.1721 16.8656H15.6934L15.6592 16.8593H15.6263L15.5923 16.853L15.5595 16.8467L15.5266 16.8403L15.4938 16.834L15.4597 16.8239L15.4293 16.8177L15.3965 16.8075L15.3624 16.7973L15.3321 16.7835L15.2992 16.7734L15.2689 16.7633L15.2347 16.7494L15.2045 16.7355L15.1754 16.7216L15.1452 16.7052L15.1148 16.6912L15.0845 16.6748L15.0579 16.6584L15.0277 16.6421L15.0011 16.6257L14.9746 16.6091L14.948 16.5889L14.9216 16.5688L14.895 16.5486L14.8685 16.5284L14.8445 16.5082L14.8179 16.4841L14.8381 16.4576L14.8621 16.4337L14.8824 16.4071L14.9064 16.3805L14.9266 16.3566L14.9468 16.33L14.9708 16.3035L14.991 16.2795L15.0151 16.2529L15.0353 16.2289L15.0593 16.2025L15.0795 16.1759L15.0996 16.152L15.1236 16.1254L15.1438 16.0989L15.1679 16.0749L15.1881 16.0483L15.2145 16.0685L15.2449 16.0887L15.2714 16.109L15.3018 16.1292L15.3282 16.1456L15.3586 16.1658L15.3851 16.1822L15.4155 16.1961L15.4419 16.2125L15.4723 16.2265L15.5026 16.2403L15.5316 16.2543L15.562 16.2643L15.5923 16.2783L15.6251 16.2883L15.6592 16.2984L15.6882 16.3086L15.7224 16.3148L15.7553 16.3212L15.7881 16.3274H15.8247L15.8588 16.3338H16.0382L16.0724 16.3274L16.1014 16.3212L16.1317 16.3148L16.1581 16.3048L16.1821 16.2909L16.2087 16.2707L16.229 16.2467L16.2428 16.2201L16.2528 16.1898V16.1064L16.239 16.0723L16.2226 16.0483L16.1986 16.0281L16.1721 16.0079L16.1455 15.994L16.1165 15.9802L16.0824 15.9662L16.0432 15.9498L16.0192 15.9434L15.9927 15.9372L15.9623 15.9271L15.9321 15.9208L15.8992 15.9107L15.8652 15.9043L15.8285 15.8943L15.7945 15.8879L15.7577 15.8779L15.7249 15.8715L15.6908 15.8613L15.658 15.8551L15.6239 15.8449L15.5935 15.8349L15.5607 15.8285L15.5304 15.8184L15.5014 15.8084L15.471 15.7982L15.4344 15.7844L15.4015 15.7704L15.3674 15.7566L15.3334 15.7426L15.3042 15.7262L15.2702 15.7098L15.2437 15.6934L15.2133 15.6769L15.1868 15.6567L15.1603 15.6403L15.1362 15.6202L15.1122 15.5962L15.0883 15.5722L15.0681 15.5481L15.0479 15.5241L15.0315 15.5001L15.0151 15.4736L14.9986 15.4433L14.9847 15.4193L14.9746 15.3928L14.9645 15.3624L14.9544 15.3359L14.948 15.3019L14.9418 15.2715V14.9924L14.948 14.9621L14.9544 14.9317L14.9645 14.9014L14.9708 14.8711L14.9847 14.8408L14.9986 14.8104L15.0125 14.7801L15.0289 14.7499L15.0453 14.7195L15.0655 14.693L15.0858 14.6664L15.1098 14.64L15.1338 14.6159L15.1578 14.5894L15.1843 14.5653L15.2083 14.5489L15.2347 14.5287L15.2614 14.5086L15.2878 14.4922L15.3182 14.4758L15.3485 14.4618L15.3775 14.4454L15.4079 14.4315L15.4407 14.4214L15.4736 14.4075L15.5038 14.3974L15.5304 14.3911L15.5607 14.3847L15.5911 14.3785L15.6239 14.3721L15.6542 14.3659H16.071L16.1051 14.3721H16.1417L16.1759 14.3785L16.2062 14.3847L16.239 14.3911L16.2718 14.3974L16.3022 14.4037L16.3363 14.4138L16.3653 14.4239L16.3957 14.4302L16.4298 14.4441L16.46 14.4542L16.4891 14.4682L16.5195 14.482L16.5535 14.4959L16.5826 14.5123L16.6092 14.5262L16.6394 14.5427L16.6698 14.5591L16.6963 14.5755L16.7265 14.5957L16.7531 14.6121L16.7796 14.6324L16.8062 14.6526L16.8327 14.6728L16.8126 14.6993L16.796 14.7258L16.7758 14.7523L16.7557 14.7789L16.7355 14.8092L16.7191 14.8358L16.6989 14.8622L16.6786 14.8888L16.6622 14.9153L16.642 14.9419L16.6218 14.9683L16.6054 14.9948L16.5851 15.0252L16.5649 15.0517L16.5447 15.0782L16.5283 15.1047L16.5081 15.1313L16.4816 15.1111L16.4526 15.0947L16.426 15.0782L16.3994 15.058L16.3691 15.0442L16.3427 15.0278L16.3135 15.0138L16.287 14.9999L16.2568 14.986L16.2302 14.9721L16.2011 14.9621L16.1747 14.9481L16.1379 14.9381L16.1051 14.9279L16.0724 14.9178L16.0382 14.9115L16.0053 14.9051L15.9725 14.8989H15.8033L15.7666 14.9051L15.7325 14.9115L15.7034 14.9178L15.6769 14.9317L15.6529 14.9457L15.6226 14.9721L15.6023 15.0024L15.5885 15.0328V15.1173L15.6049 15.154L15.6189 15.1742L15.6428 15.1982L15.6732 15.2146L15.6996 15.231L15.7325 15.245L15.7691 15.2589L15.8083 15.2727L15.8348 15.2791L15.8613 15.2891L15.8916 15.2955L15.9207 15.3057L15.9548 15.3119L15.9915 15.3221L16.0281 15.3321L16.0648 15.3423L16.1014 15.3485L16.1355 15.3586L16.1721 15.3688L16.2062 15.375L16.239 15.3852L16.2718 15.3952L16.3009 15.4054L16.335 15.4156L16.3653 15.4256L16.3944 15.4357L16.431 15.4496L16.4639 15.466L16.4967 15.4799L16.5307 15.4963L16.5611 15.5127L16.5914 15.5292L16.618 15.5456L16.6444 15.5658L16.671 15.5822L16.6975 15.6062L16.7241 15.6302L16.7481 15.6567L16.7721 15.6807L16.7922 15.7073L16.8126 15.7376L16.829 15.7642L16.8454 15.7944L16.8592 15.821L16.8693 15.8513L16.8794 15.8817L16.8857 15.9119L16.8921 15.946L16.8983 15.9802V16.1317L16.8908 16.1696ZM14.5578 16.8378H12.6453V14.4049H14.5692V14.9569H13.2806V15.3549H14.439V15.8727H13.2806V16.2871H14.5856V16.8378H14.5578ZM12.1262 16.8378H11.5173V15.399L11.5009 15.4256L11.4807 15.4559L11.4643 15.4825L11.4441 15.5089L11.4276 15.5393L11.4074 15.5658L11.391 15.5924L11.3746 15.6226L11.3544 15.6492L11.3379 15.6757L11.3177 15.7023L11.3013 15.7326L11.2811 15.759L11.2647 15.7856L11.2483 15.8159L11.228 15.8425L11.2116 15.8689L11.1914 15.8993L11.175 15.9258L11.1548 15.9524L11.1384 15.9826L11.1219 16.0092L11.1017 16.0357L11.0853 16.0661L11.0651 16.0925L11.0486 16.119L11.0284 16.1456L11.012 16.1759L10.9956 16.2025L10.9754 16.2289L10.9591 16.2593L10.9387 16.2858L10.9223 16.3124L10.9022 16.3426L10.8858 16.3692H10.8718L10.8516 16.3388L10.8352 16.3124L10.815 16.282L10.7986 16.2555L10.7784 16.2251L10.7619 16.1987L10.7417 16.1684L10.7253 16.1418L10.7051 16.1115L10.6886 16.085L10.6684 16.0547L10.652 16.0281L10.6318 15.9978L10.6154 15.9712L10.5953 15.941L10.5789 15.9144L10.5585 15.8841L10.5384 15.8575L10.522 15.8273L10.5018 15.8008L10.4854 15.7704L10.4651 15.7439L10.4487 15.7136L10.4285 15.6871L10.4121 15.6567L10.3919 15.6302L10.3755 15.6L10.3553 15.5734L10.3388 15.5431L10.3186 15.5165L10.3022 15.4863L10.282 15.4597L10.2656 15.4294L10.2453 15.4028V16.8353H9.61373V14.4025H10.2958L10.3123 14.429L10.3287 14.4592L10.3489 14.4858L10.3653 14.5161L10.3817 14.5427L10.3982 14.5729L10.4146 14.5995L10.4348 14.6298L10.4512 14.6564L10.4676 14.6828L10.484 14.7132L10.5005 14.7397L10.5207 14.7701L10.5371 14.7966L10.5535 14.8268L10.5699 14.8534L10.5901 14.8799L10.6066 14.9103L10.623 14.9367L10.6394 14.9671L10.6558 14.9936L10.676 15.024L10.6925 15.0504L10.7089 15.0807L10.7253 15.1073L10.7417 15.1339L10.7619 15.1641L10.7784 15.1906L10.7948 15.221L10.8112 15.2475L10.8276 15.2778L10.8478 15.3043L10.8642 15.3334L10.8807 15.3599L10.8971 15.3334L10.9135 15.3043L10.9337 15.2778L10.9501 15.2475L10.9665 15.221L10.983 15.1906L11.0032 15.1641L11.0196 15.1339L11.036 15.1073L11.0525 15.0807L11.0727 15.0504L11.0891 15.024L11.1055 14.9936L11.1219 14.9671L11.1421 14.9367L11.1586 14.9103L11.175 14.8799L11.1914 14.8534L11.2078 14.8268L11.228 14.7966L11.2444 14.7701L11.2609 14.7397L11.2773 14.7132L11.2975 14.6828L11.3139 14.6564L11.3304 14.6298L11.3468 14.5995L11.367 14.5729L11.3834 14.5427L11.3998 14.5161L11.4163 14.4858L11.4365 14.4592L11.4529 14.429L11.4693 14.4025H12.1514V16.8353L12.1262 16.8378ZM8.26474 15.8349L8.25458 15.8046L8.24063 15.7704L8.22681 15.7401L8.21665 15.7098L8.20282 15.6795L8.18887 15.6454L8.17884 15.6151L8.16489 15.5848L8.15094 15.5544L8.1409 15.5241L8.12695 15.4901L8.11692 15.4597L8.10297 15.4294L8.08914 15.399L8.07898 15.3688L8.06516 15.3347L8.05121 15.3043L8.04117 15.274L8.02722 15.2437L8.01327 15.2096L8.00324 15.1793L7.98929 15.149L7.97546 15.1793L7.9653 15.2096L7.95148 15.2437L7.93753 15.274L7.92749 15.3043L7.91354 15.3347L7.89959 15.3688L7.88576 15.399L7.87561 15.4294L7.86178 15.4597L7.84783 15.4901L7.83779 15.5241L7.82384 15.5544L7.8099 15.5848L7.79986 15.6151L7.78591 15.6454L7.77208 15.6795L7.75813 15.7098L7.74798 15.7401L7.73415 15.7704L7.72032 15.8046L7.71016 15.8349L7.69621 15.8651H8.2596L8.26474 15.8349ZM9.30928 16.8378H8.65754L8.64359 16.8075L8.63356 16.7771L8.61961 16.7469L8.60578 16.7128L8.59562 16.6824L8.58168 16.6521L8.56785 16.6219L8.55769 16.5915L8.54386 16.5612L8.52991 16.5308L8.51988 16.5006L8.50593 16.4665L8.4921 16.4361L8.48194 16.4058L8.46799 16.3755H7.51315L7.4992 16.4058L7.48917 16.4361L7.47522 16.4665L7.46127 16.5006L7.45123 16.5308L7.43728 16.5612L7.42345 16.5915L7.4133 16.6219L7.39935 16.6521L7.38552 16.6824L7.37549 16.7128L7.36154 16.7469L7.34759 16.7771L7.33755 16.8075L7.3236 16.8378H6.64788L6.66171 16.8075L6.67566 16.7771L6.68949 16.7469L6.70344 16.7128L6.71347 16.6824L6.72742 16.6521L6.74125 16.6219L6.7552 16.5915L6.76915 16.5612L6.78298 16.527L6.79693 16.4968L6.81075 16.4665L6.82091 16.4361L6.83474 16.4058L6.84869 16.3755L6.86252 16.3414L6.87647 16.311L6.89042 16.2808L6.90424 16.2505L6.91819 16.2201L6.92823 16.1898L6.94218 16.1558L6.95601 16.1254L6.96996 16.0951L6.98391 16.0647L6.99773 16.0345L7.01168 16.0041L7.02551 15.97L7.03567 15.9397L7.0495 15.9094L7.06345 15.8791L7.07727 15.8487L7.09122 15.8184L7.10517 15.7844L7.119 15.754L7.13283 15.7237L7.14299 15.6934L7.15694 15.6631L7.17076 15.6328L7.18471 15.5986L7.19854 15.5684L7.21249 15.538L7.22632 15.5077L7.24027 15.4773L7.25043 15.4471L7.26425 15.418L7.2782 15.3839L7.29203 15.3536L7.30598 15.3233L7.31981 15.2929L7.33376 15.2627L7.34759 15.2324L7.35774 15.1982L7.37169 15.1679L7.38552 15.1377L7.39935 15.1073L7.4133 15.077L7.42725 15.0466L7.44108 15.0126L7.45503 14.9822L7.46506 14.9519L7.47901 14.9215L7.49284 14.8913L7.50679 14.861L7.52074 14.8268L7.53457 14.7966L7.54852 14.7663L7.56234 14.7359L7.5725 14.7056L7.58633 14.6753L7.60028 14.6412L7.61411 14.6109L7.62805 14.5805L7.64201 14.5503L7.65583 14.5199L7.66978 14.4896L7.67982 14.4554L7.69377 14.4252L7.7076 14.3949L7.72154 14.3645H8.33669L8.35064 14.3949L8.36447 14.4252L8.37842 14.4554L8.39225 14.4896L8.4024 14.5199L8.41623 14.5503L8.43018 14.5805L8.44413 14.6109L8.45796 14.6412L8.47191 14.6753L8.48574 14.7056L8.49956 14.7359L8.50972 14.7663L8.52367 14.7966L8.5375 14.8268L8.55145 14.861L8.56528 14.8913L8.57923 14.9215L8.59305 14.9519L8.607 14.9822L8.61716 15.0126L8.63099 15.0466L8.64494 15.077L8.65877 15.1073L8.67272 15.1377L8.68655 15.1679L8.70049 15.1982L8.71432 15.2324L8.72448 15.2627L8.73843 15.2929L8.75226 15.3233L8.76608 15.3536L8.78003 15.3839L8.79398 15.418L8.80781 15.4471L8.82176 15.4773L8.8318 15.5077L8.84575 15.538L8.85957 15.5684L8.87352 15.5986L8.88747 15.6328L8.9013 15.6631L8.91525 15.6934L8.92908 15.7237L8.93924 15.754L8.95306 15.7844L8.96701 15.8184L8.98084 15.8487L8.99479 15.8791L9.00874 15.9094L9.02257 15.9397L9.03652 15.97L9.04655 16.0041L9.0605 16.0345L9.07433 16.0647L9.08828 16.0951L9.10223 16.1254L9.11606 16.1558L9.13001 16.1898L9.14384 16.2201L9.15399 16.2505L9.16782 16.2808L9.18177 16.311L9.1956 16.3414L9.20955 16.3755L9.22338 16.4058L9.23733 16.4361L9.25115 16.4665L9.26131 16.4968L9.27526 16.527L9.28909 16.5612L9.30304 16.5915L9.31687 16.6219L9.33082 16.6521L9.34464 16.6824L9.35859 16.7128L9.36875 16.7469L9.38258 16.7771L9.39653 16.8075L9.41036 16.8378H9.30928ZM6.39519 16.527L6.36864 16.5473L6.34465 16.5637L6.3181 16.5839L6.29167 16.6003L6.26511 16.6205L6.23856 16.637L6.21213 16.6534L6.18178 16.6698L6.15143 16.6862L6.12231 16.7026L6.09208 16.7166L6.06296 16.733L6.03017 16.7469L6.00104 16.7607L5.96702 16.7747L5.9379 16.7885L5.90755 16.7987L5.87733 16.8087L5.84698 16.8189L5.81418 16.829L5.78506 16.8391L5.75104 16.8454L5.72069 16.8517L5.6879 16.858L5.65376 16.8644H5.1321L5.09796 16.858L5.06504 16.8517L5.03482 16.8454L5.00068 16.8391L4.97033 16.829L4.93753 16.8227L4.90719 16.8125L4.87684 16.7987L4.84661 16.7885L4.8137 16.7747L4.78347 16.7607L4.75313 16.7469L4.724 16.733L4.69378 16.7166L4.66722 16.7002L4.63687 16.6837L4.61032 16.6673L4.58389 16.6509L4.55734 16.6307L4.53078 16.6105L4.50423 16.5903L4.48024 16.57L4.45626 16.5498L4.43227 16.5258L4.40829 16.5056L4.38431 16.4816L4.36032 16.4576L4.34001 16.4337L4.31982 16.4071L4.29963 16.3831L4.28323 16.3566L4.26304 16.33L4.24664 16.3035L4.23012 16.277L4.21372 16.2467L4.19733 16.2201L4.18338 16.1898L4.16955 16.1596L4.1556 16.1292L4.14177 16.0989L4.13161 16.0723L4.11766 16.0421L4.11142 16.0117L4.10127 15.9814L4.09503 15.9472L4.08487 15.917L4.07851 15.8829V15.8539L4.07227 15.8197V15.4332L4.07851 15.4004V15.3662L4.08487 15.3359L4.09503 15.3019L4.10127 15.2677L4.11142 15.2374L4.12158 15.2032L4.13161 15.173L4.14556 15.1389L4.15939 15.1085L4.17334 15.0782L4.18717 15.048L4.20112 15.0176L4.21752 14.9873L4.23391 14.9607L4.25031 14.9343L4.26683 14.9077L4.28323 14.8812L4.30342 14.8546L4.32361 14.8282L4.3438 14.8016L4.36399 14.7776L4.3881 14.7537L4.40829 14.7296L4.43227 14.7056L4.45626 14.6816L4.48024 14.6614L4.5068 14.6374L4.53078 14.6172L4.55734 14.597L4.58389 14.5805L4.61032 14.5603L4.63687 14.5439L4.66343 14.5275L4.69378 14.5111L4.724 14.4946L4.75435 14.4782L4.78347 14.4644L4.8137 14.4504L4.84784 14.434L4.87439 14.4239L4.90719 14.4138L4.93753 14.3999L4.96654 14.3936L4.99566 14.3835L5.0298 14.3771L5.06003 14.3671L5.09294 14.3607H5.12574L5.15988 14.3545H5.57544L5.61203 14.3607H5.64238L5.67517 14.3671L5.70931 14.3733L5.73966 14.3797L5.77001 14.3861L5.80023 14.3923L5.83058 14.4025L5.85958 14.4087L5.88614 14.4189L5.91648 14.429L5.94683 14.4428L5.97706 14.4568L6.0074 14.4706L6.03775 14.487L6.06675 14.501L6.09331 14.5174L6.12231 14.5338L6.14886 14.5503L6.17921 14.5667L6.20576 14.5869L6.23232 14.6033L6.25875 14.6235L6.2853 14.6436L6.31186 14.6678L6.33841 14.6879L6.3181 14.7145L6.29411 14.7385L6.27392 14.7649L6.24994 14.7915L6.22975 14.818L6.20956 14.842L6.18545 14.8686L6.16526 14.8951L6.14507 14.9191L6.12108 14.9457L6.10089 14.9721L6.07691 14.9986L6.05672 15.0226L6.03653 15.0492L6.01242 15.0757L5.99223 15.1023L5.96825 15.1263L5.94806 15.1527L5.9215 15.1325L5.89495 15.1085L5.86852 15.0921L5.84196 15.0719L5.81541 15.0555L5.78885 15.039L5.7623 15.0226L5.73208 15.0062L5.70552 14.9924L5.67897 14.9784L5.65241 14.9683L5.62219 14.9583L5.59306 14.9481L5.56284 14.9419L5.52992 14.9355L5.49578 14.9291H5.25716L5.22425 14.9355L5.19402 14.9419L5.16367 14.9519L5.13455 14.9621L5.1042 14.9759L5.07398 14.9898L5.04742 15.0062L5.02087 15.0226L4.99431 15.039L4.97033 15.0593L4.94635 15.0795L4.92236 15.0997L4.90217 15.1237L4.87819 15.1477L4.85787 15.1742L4.84148 15.1982L4.82508 15.2248L4.80868 15.2551L4.79228 15.2816L4.77833 15.3119L4.7683 15.3423L4.75435 15.3726L4.74419 15.4066L4.73795 15.4408L4.73159 15.4711L4.72535 15.5077V15.7502L4.73159 15.7806L4.73795 15.8109L4.74419 15.8411L4.75435 15.8715L4.76451 15.898L4.77833 15.9322L4.79228 15.9624L4.80868 15.9928L4.82508 16.0193L4.84148 16.0459L4.86179 16.0723L4.88198 16.0963L4.90596 16.1204L4.92615 16.1444L4.95014 16.1646L4.97669 16.1848L5.00325 16.205L5.0298 16.2213L5.05623 16.2379L5.08658 16.2517L5.11558 16.2656L5.14593 16.2795L5.18007 16.2896L5.21286 16.2997L5.24701 16.306L5.2798 16.3124H5.53249L5.56663 16.306L5.60065 16.2997L5.63357 16.2896L5.66257 16.2833L5.69292 16.2694L5.71947 16.2555L5.74847 16.2417L5.77246 16.2277L5.79901 16.2113V15.9069H5.31394V15.4193H6.41293V16.5056L6.39519 16.527Z" fill="white"/>
<path d="M5.32415 8.90283H6.76664V7.78756H5.32415V5.51383H6.82354V4.39844H4.09888V12.4486H6.84618V11.3332H5.32415V8.90283Z" fill="white"/>
<path d="M15.6542 9.14501V10.9627C15.6542 11.2849 15.5051 11.4339 15.1969 11.4339H14.9745C14.9105 11.4441 14.845 11.4391 14.7833 11.4191C14.7216 11.399 14.6656 11.3648 14.6197 11.3189C14.5737 11.2729 14.5392 11.2166 14.5192 11.1547C14.4993 11.0928 14.4943 11.0269 14.5047 10.9627V5.87972C14.4943 5.8156 14.4993 5.74977 14.5192 5.68785C14.5392 5.62593 14.5737 5.56952 14.6197 5.52351C14.6656 5.47774 14.7216 5.44348 14.7833 5.42341C14.845 5.40347 14.9105 5.39833 14.9745 5.40861H15.1805C15.4887 5.40861 15.6378 5.559 15.6378 5.87972V7.45742H16.8403V5.81536C16.8716 5.61406 16.8551 5.40812 16.7921 5.21441C16.7292 5.0207 16.6214 4.84436 16.4777 4.69997C16.3342 4.55557 16.1586 4.44691 15.9654 4.38279C15.772 4.31879 15.5663 4.30105 15.3649 4.33115H14.7699C14.5668 4.30264 14.3598 4.32209 14.1654 4.38781C13.9711 4.45364 13.7948 4.56402 13.6508 4.71012C13.5061 4.85538 13.3975 5.03244 13.3333 5.22725C13.2693 5.42194 13.2517 5.62899 13.2819 5.83176V11.0297C13.2517 11.2325 13.2693 11.4395 13.3333 11.6342C13.3975 11.829 13.5061 12.0061 13.6508 12.1514C13.7948 12.2975 13.9711 12.4079 14.1654 12.4736C14.3598 12.5394 14.5668 12.5589 14.7699 12.5303H15.3763C15.5794 12.5589 15.7865 12.5394 15.9808 12.4736C16.1751 12.4079 16.3514 12.2975 16.4955 12.1514C16.6401 12.0061 16.7488 11.829 16.8129 11.6342C16.8769 11.4395 16.8945 11.2325 16.8643 11.0297V9.15517L15.6542 9.14501Z" fill="white"/>
<path d="M11.3999 12.4447H12.6251V4.39453H11.3999V12.4447Z" fill="white"/>
<path d="M9.62264 7.97061C9.62264 8.2928 9.4736 8.44307 9.16547 8.44307H8.66021V5.47587H9.16547C9.4736 5.47587 9.62264 5.62627 9.62264 5.94712V7.97061ZM9.35869 4.3934H7.43494V12.4435H8.65764V9.52187H9.35612C9.55938 9.55039 9.76643 9.53093 9.96075 9.46509C10.1551 9.39926 10.3313 9.28901 10.4753 9.1429C10.62 8.99765 10.7287 8.82046 10.7927 8.62577C10.8567 8.43096 10.8744 8.22391 10.8441 8.02114V5.88006C10.8744 5.67729 10.8567 5.47037 10.7927 5.27556C10.7287 5.08075 10.62 4.90368 10.4753 4.75843C10.3313 4.61232 10.1551 4.50194 9.96075 4.43623C9.76643 4.3704 9.55938 4.35094 9.35612 4.37945" fill="white"/>
<path fill-rule="evenodd" clip-rule="evenodd" d="M6.98901 19.7231H13.9995L10.421 20.9029L6.98901 19.7231Z" fill="white"/>
</g>
<defs>
<clipPath id="clip0_13721_517">
<rect width="20.9509" height="24" fill="white"/>
</clipPath>
</defs>
</svg>
