<svg width="32" height="32" viewBox="0 0 32 32" fill="none" xmlns="http://www.w3.org/2000/svg">
<path fill-rule="evenodd" clip-rule="evenodd" d="M8.00024 11.0001C8.00024 10.4478 8.44796 10.0001 9.00024 10.0001H23.0002C23.5525 10.0001 24.0002 10.4478 24.0002 11.0001C24.0002 11.5524 23.5525 12.0001 23.0002 12.0001H9.00024C8.44796 12.0001 8.00024 11.5524 8.00024 11.0001ZM8.00024 16.0001C8.00024 15.4478 8.44796 15.0001 9.00024 15.0001H23.0002C23.5525 15.0001 24.0002 15.4478 24.0002 16.0001C24.0002 16.5524 23.5525 17.0001 23.0002 17.0001H9.00024C8.44796 17.0001 8.00024 16.5524 8.00024 16.0001ZM9.00024 20.0001C8.44796 20.0001 8.00024 20.4478 8.00024 21.0001C8.00024 21.5524 8.44796 22.0001 9.00024 22.0001H15.0002C15.5525 22.0001 16.0002 21.5524 16.0002 21.0001C16.0002 20.4478 15.5525 20.0001 15.0002 20.0001H9.00024Z" fill="white"/>
</svg>
