<svg width="129" height="129" viewBox="0 0 129 129" fill="none" xmlns="http://www.w3.org/2000/svg">
<path opacity="0.4" d="M64.3055 128.611C99.8204 128.611 128.611 99.8204 128.611 64.3055C128.611 28.7906 99.8204 0 64.3055 0C28.7906 0 0 28.7906 0 64.3055C0 99.8204 28.7906 128.611 64.3055 128.611Z" fill="white"/>
<path opacity="0.3" d="M64.5 117C93.4949 117 117 93.4949 117 64.5C117 35.5051 93.4949 12 64.5 12C35.5051 12 12 35.5051 12 64.5C12 93.4949 35.5051 117 64.5 117Z" fill="white"/>
<path class="pause" fill-rule="evenodd" clip-rule="evenodd" d="M54 44C52.8954 44 52 44.8954 52 46V83C52 84.1046 52.8954 85 54 85H60C61.1046 85 62 84.1046 62 83V46C62 44.8954 61.1046 44 60 44H54ZM70 44C68.8954 44 68 44.8954 68 46V83C68 84.1046 68.8954 85 70 85H76C77.1046 85 78 84.1046 78 83V46C78 44.8954 77.1046 44 76 44H70Z" fill="#141821"/>
</svg>
