<svg width="24" height="24" viewBox="0 0 24 24" fill="none" xmlns="http://www.w3.org/2000/svg">
<g clip-path="url(#clip0_13721_536)">
<path d="M0.666454 15.3976C2.12639 20.2656 6.64171 23.8153 11.9848 23.8153C18.5103 23.8153 23.8003 18.5254 23.8003 12C23.8003 5.47454 18.5103 0.18457 11.9848 0.18457C5.72344 0.18457 0.599623 5.05583 0.194946 11.215C0.960727 12.4988 1.25796 13.293 0.665715 15.3976H0.666454Z" fill="white"/>
<path d="M11.376 9.04045L11.3772 9.09873L8.48606 13.2987C8.01791 13.2774 7.54818 13.3597 7.10218 13.5432C6.90802 13.6221 6.72264 13.7211 6.54908 13.8386L0.200154 11.2218C0.200154 11.2218 0.0532005 13.6389 0.665385 15.4399L5.15375 17.292C5.3753 18.2993 6.06945 19.1825 7.08926 19.6071C7.8916 19.9404 8.7934 19.9417 9.59665 19.6107C10.4 19.2796 11.039 18.6433 11.3735 17.8414C11.5519 17.4143 11.6379 16.9542 11.626 16.4915L15.7588 13.5358L15.8604 13.5377C18.336 13.5377 20.3484 11.5194 20.3484 9.04045C20.3484 6.56141 18.3397 4.55058 15.8604 4.54541C13.3857 4.54541 11.3724 6.56141 11.3724 9.04045H11.376ZM10.6819 17.5512C10.145 18.8435 8.66366 19.4517 7.37615 18.9151C6.80481 18.675 6.34171 18.2332 6.07499 17.6738L7.53603 18.2793C7.76171 18.3732 8.00373 18.4218 8.24823 18.4222C8.49265 18.4226 8.73483 18.3748 8.96088 18.2816C9.18685 18.1884 9.39228 18.0515 9.56538 17.8788C9.73841 17.7062 9.8758 17.5011 9.96963 17.2754C10.1596 16.8192 10.1607 16.3063 9.97278 15.8493C9.78475 15.3923 9.4231 15.0286 8.96718 14.8381L7.45332 14.2122C8.03598 13.9907 8.69838 13.9833 9.31795 14.2407C9.94563 14.5002 10.4256 14.9891 10.6826 15.6142C10.9396 16.2393 10.9381 16.9287 10.6789 17.5512M15.8644 12.0367C15.0711 12.0346 14.311 11.7181 13.7505 11.1567C13.1901 10.5952 12.8751 9.83448 12.8744 9.04113C12.8753 8.248 13.1904 7.48747 13.7508 6.92616C14.3112 6.36485 15.0712 6.04848 15.8644 6.04633C16.6577 6.04828 17.4179 6.36457 17.9785 6.9259C18.5391 7.48723 18.8543 8.24785 18.8552 9.04113C18.8545 9.83463 18.5394 10.5954 17.9787 11.1569C17.4181 11.7184 16.6578 12.0348 15.8644 12.0367ZM13.6239 9.03633C13.6234 8.4403 13.8596 7.86843 14.2806 7.44646C14.7015 7.02447 15.2728 6.78688 15.8688 6.7859C17.1076 6.7859 18.1152 7.79388 18.1152 9.03633C18.1155 9.6325 17.8791 10.2045 17.4578 10.6263C17.0366 11.0482 16.465 11.2855 15.8688 11.2861C15.2729 11.2852 14.7016 11.0478 14.2806 10.6259C13.8596 10.2041 13.6233 9.63235 13.6236 9.03633H13.6239Z" fill="#383D45"/>
</g>
<defs>
<clipPath id="clip0_13721_536">
<rect width="24" height="24" fill="white"/>
</clipPath>
</defs>
</svg>
