<svg width="32" height="32" viewBox="0 0 32 32" fill="none" xmlns="http://www.w3.org/2000/svg">
<path fill-rule="evenodd" clip-rule="evenodd" d="M30.1818 7.43436C30.5511 7.43436 30.9001 7.60279 31.1304 7.89211C31.3604 8.18098 31.446 8.55917 31.3628 8.91916L28.5346 21.1614C28.4073 21.7121 27.918 22.1012 27.3536 22.1012H10.3841C9.80559 22.1012 9.3074 21.6919 9.19509 21.1242L5.63798 3.14512L1.60006 2.40494C0.941436 2.28413 0.5055 1.65263 0.626312 0.994071C0.747124 0.335511 1.37743 -0.1013 2.03718 0.0203247L6.8856 0.909196C7.37491 0.998883 7.75953 1.37826 7.8561 1.86594L8.9579 7.43436H30.1818ZM11.3796 19.677H26.3895L28.6573 9.85897H9.43746L11.3796 19.677ZM12.1619 23.9199C9.93408 23.9199 8.12158 25.7324 8.12158 27.9603C8.12158 30.1881 9.93408 32.0006 12.1619 32.0006C14.3898 32.0006 16.2023 30.1881 16.2023 27.9603C16.2023 25.7324 14.3897 23.9199 12.1619 23.9199ZM12.1619 29.5764C11.2706 29.5764 10.5458 28.8516 10.5458 27.9603C10.5458 27.069 11.2706 26.3442 12.1619 26.3442C13.0528 26.3442 13.7781 27.069 13.7781 27.9603C13.7781 28.8515 13.0533 29.5764 12.1619 29.5764ZM24.1212 23.9199C21.8933 23.9199 20.0808 25.7324 20.0808 27.9603C20.0808 30.1881 21.8933 32.0006 24.1212 32.0006C26.349 32.0006 28.1615 30.1881 28.1615 27.9603C28.1615 25.7324 26.349 23.9199 24.1212 23.9199ZM24.1212 29.5764C23.2299 29.5764 22.5051 28.8516 22.5051 27.9603C22.5051 27.069 23.2299 26.3442 24.1212 26.3442C25.0125 26.3442 25.7373 27.069 25.7373 27.9603C25.7373 28.8515 25.0125 29.5764 24.1212 29.5764Z" fill="white"/>
</svg>
