<svg width="30" height="21" viewBox="0 0 30 21" fill="none" xmlns="http://www.w3.org/2000/svg">
<g clip-path="url(#clip0_13721_540)">
<path d="M14.9963 0C14.9963 0 5.60867 4.82658e-05 3.26159 0.6177C2.00158 0.963585 0.963586 2.00148 0.6177 3.2862C4.82658e-05 5.63328 0 10.5001 0 10.5001C0 10.5001 4.82658e-05 15.3916 0.6177 17.714C0.963586 18.9987 1.97687 20.012 3.26159 20.3579C5.63337 21.0002 14.9963 21.0002 14.9963 21.0002C14.9963 21.0002 24.3847 21.0001 26.7317 20.3825C28.0165 20.0366 29.0297 19.0233 29.3756 17.7386C29.9933 15.3915 29.9933 10.5247 29.9933 10.5247C29.9933 10.5247 30.018 5.63328 29.3756 3.2862C29.0297 2.00148 28.0165 0.988195 26.7317 0.64231C24.3847 -4.82658e-05 14.9963 0 14.9963 0ZM12.007 6.00392L19.814 10.5001L12.007 14.9963V6.00392Z" fill="white"/>
</g>
<defs>
<clipPath id="clip0_13721_540">
<rect width="29.9931" height="21" fill="white"/>
</clipPath>
</defs>
</svg>
