<svg width="21" height="24" fill="none" xmlns="http://www.w3.org/2000/svg"><g clip-path="url(#clip0_13721_517)"><path fill-rule="evenodd" clip-rule="evenodd" d="M19.049 0H1.902C.513 0 0 .505 0 1.878v16.564c0 .145.006.29.02.433-.004.335.109.661.32.921.026.033.316.245.316.245.154.076.26.127.435.2l8.442 3.492c.287.169.612.26.945.267.331-.008.655-.1.94-.269l8.442-3.493c.174-.07.28-.126.435-.2 0 0 .288-.211.316-.244.211-.26.324-.586.32-.921a4.48 4.48 0 00.02-.433V1.878C20.95.507 20.446 0 19.056 0" fill="#fff"/><path d="M17.902 16.647v.08l-.008.037-.011.038-.008.036-.011.037-.017.036-.015.03-.016.034-.02.03-.018.03-.023.031-.019.03-.023.027-.026.027-.023.022-.03.027-.027.023-.03.022-.03.02-.03.022-.036.019-.035.015-.036.019-.038.015-.038.015-.037.012-.038.011-.036.012-.038.007-.035.008-.035.007-.038.008h-.555l-.038-.008h-.038l-.038-.007-.037-.008-.038-.008-.038-.007-.038-.011-.035-.008-.038-.011-.038-.012-.036-.015-.037-.011-.036-.012-.038-.015-.035-.015-.036-.015-.035-.02-.035-.014-.036-.02-.03-.018-.035-.019-.03-.019-.03-.019-.031-.023-.03-.023-.03-.022-.031-.023-.027-.023-.03-.026.024-.03.027-.027.023-.03.027-.03.024-.027.023-.03.026-.03.023-.027.027-.03.022-.027.027-.03.023-.03.024-.027.026-.03.024-.031.027-.026.024-.03.03.022.035.023.03.022.036.023.03.02.036.022.03.019.035.015.03.019.036.015.035.015.036.015.035.012.035.015.038.011.038.012.036.011.038.008.038.007.037.008h.043l.038.007h.209l.038-.007.035-.008.035-.007.03-.012.027-.015.03-.023.023-.026.017-.03.01-.035v-.093l-.015-.038-.02-.026-.026-.023-.03-.023-.03-.015-.036-.015-.038-.015-.047-.02-.026-.007-.03-.008-.036-.011-.035-.008-.038-.01-.038-.009-.043-.01-.038-.009-.043-.01-.038-.008-.038-.012-.037-.007-.038-.012-.036-.011-.038-.008-.035-.011-.035-.011-.036-.012-.043-.015-.038-.015-.037-.015-.038-.015-.036-.02-.038-.018-.03-.02-.035-.018-.03-.023-.03-.019-.027-.023-.027-.026-.027-.027-.023-.026-.023-.027-.02-.026-.018-.03-.02-.035-.015-.026-.012-.03-.011-.036-.011-.03-.008-.038-.008-.035v-.319l.008-.034.008-.035.01-.035.008-.035.017-.035.016-.034.017-.034.019-.036.019-.034.022-.03.024-.03.027-.03.026-.027.027-.03.03-.027.027-.02.03-.022.03-.022.03-.02.036-.018.035-.016.036-.019.035-.015.038-.011.038-.015.035-.011.03-.008.036-.008.035-.007.038-.008.036-.007h.485l.038.007h.043l.037.008.036.007.038.008.038.008.035.007.038.011.035.012.035.007.038.015.036.012.035.015.036.015.037.015.036.02.03.014.036.02.035.018.03.02.035.022.03.019.031.023.03.022.03.023-.022.03-.019.03-.024.031-.024.03-.023.035-.019.03-.024.03-.024.03-.019.03-.023.031-.024.03-.02.03-.022.036-.024.03-.023.03-.019.031-.023.03-.03-.022-.035-.02-.03-.018-.032-.023-.036-.015-.031-.02-.035-.014-.03-.015-.036-.016-.03-.015-.036-.011-.03-.015-.043-.012-.038-.011-.038-.011-.038-.008-.038-.008-.038-.007h-.195l-.043.008-.038.007-.036.008-.03.015-.027.015-.035.03-.024.036-.016.035v.096l.019.042.016.022.027.027.035.019.03.019.038.015.043.015.046.015.03.008.03.011.036.008.035.011.038.008.043.011.043.012.043.01.043.008.038.012.043.011.037.008.038.011.038.011.036.012.037.011.036.012.035.011.043.015.038.02.038.014.038.02.035.018.035.02.03.018.031.023.03.019.03.026.031.027.027.03.026.027.023.03.024.034.019.03.019.036.015.03.011.034.012.035.007.036.008.038.008.038v.172l-.014.035zm-2.705.758H12.99v-2.78h2.227v.632h-1.49v.451h1.34v.591h-1.34v.474h1.516v.632h-.046zm-2.817 0h-.705v-1.642l-.019.03-.022.035-.02.03-.022.031-.019.034-.024.03-.019.03-.019.036-.022.03-.02.03-.023.031-.02.035-.023.03-.02.031-.018.035-.024.03-.02.031-.023.034-.02.03-.023.03-.02.036-.018.03-.024.03-.019.036-.024.03-.019.03-.024.031-.019.034-.019.03-.024.03-.019.036-.024.03-.019.03-.022.036-.02.03h-.016l-.024-.035-.019-.03-.022-.036-.02-.03-.022-.034-.02-.03-.022-.036-.019-.03-.024-.034-.019-.03-.024-.036-.019-.03-.024-.035-.019-.03-.022-.036-.02-.03-.022-.036-.024-.03-.02-.035-.022-.03-.019-.036-.022-.03-.02-.036-.022-.03-.019-.036-.024-.03-.019-.035-.024-.03-.019-.035-.024-.03-.019-.035-.023-.03-.019-.036-.022-.03v1.642H9.47v-2.78h.788l.02.031.018.034.023.03.019.036.019.03.019.036.019.03.022.035.02.03.018.031.02.034.018.03.023.034.019.03.019.035.019.03.024.03.019.035.019.03.018.035.02.03.024.035.019.03.018.034.02.03.018.03.024.036.02.03.018.036.02.03.018.035.024.03.019.035.019.03.019-.03.019-.034.023-.03.019-.036.019-.03.019-.036.024-.03.018-.035.02-.03.018-.03.024-.035.02-.03.018-.034.02-.03.023-.036.02-.03.018-.034.019-.03.019-.031.023-.034.019-.03.019-.035.018-.03.024-.034.02-.03.018-.03.02-.036.022-.03.019-.036.019-.03.019-.035.024-.03.019-.035.019-.03h.788v2.779h-.023zm-4.469-1.146l-.011-.035-.015-.038-.017-.035-.011-.036-.016-.035-.016-.038-.011-.036-.015-.035-.015-.034-.012-.035-.015-.038-.011-.036-.017-.035-.016-.035-.011-.036-.017-.038-.016-.035-.012-.034-.016-.036-.015-.037-.012-.036-.016-.035-.015.035-.012.036-.015.037-.016.036-.012.034-.016.035-.016.038-.015.036-.012.035-.015.035-.016.036-.012.038-.016.035-.017.034-.011.035-.017.036-.015.038-.016.035-.011.036-.017.035-.016.038-.012.035-.015.035h.652l-.004-.035zm1.21 1.146h-.758l-.015-.036-.011-.035-.017-.035-.015-.038-.011-.034-.015-.034-.017-.036-.01-.035-.017-.035-.017-.036-.011-.035-.015-.038-.017-.036-.011-.035-.017-.035H7.042l-.015.035-.011.035-.017.036-.015.038-.011.035-.015.036-.017.035-.011.035-.017.036-.016.034-.011.034-.016.038-.016.035-.011.035-.017.036h-.778l.016-.036.017-.035.015-.035.017-.038.01-.034.017-.034.017-.036.015-.035.016-.035.017-.038.015-.036.015-.034.011-.035.016-.036.015-.035.016-.038.017-.035.016-.036.015-.034.017-.035.01-.035.016-.038.016-.035.017-.035.015-.035.016-.036.017-.035.015-.038.011-.034.016-.035.016-.036.017-.035.016-.035.015-.038.016-.036.017-.035.011-.035.017-.035.015-.035.016-.038.017-.035.015-.035.016-.036.017-.034.011-.035.016-.034.017-.038.015-.034.016-.036.017-.034.015-.034.016-.036.012-.037.016-.034.017-.036.015-.035.016-.035.017-.036.016-.038.015-.034.012-.035.016-.036.016-.035.017-.035.015-.038.015-.036.017-.035.016-.035.011-.034.017-.036.015-.038.016-.034.017-.035.015-.036.016-.035.017-.034.011-.038.017-.035.016-.036.015-.035h.714l.016.035.015.036.017.035.016.038.012.034.016.035.015.036.017.035.016.034.017.038.015.036.016.034.012.035.016.035.016.036.015.038.016.035.016.035.016.036.016.035.011.034.016.038.016.036.016.035.016.035.016.036.016.034.016.037.012.036.015.034.016.034.017.036.015.034.016.037.017.035.015.035.011.034.016.036.016.035.016.035.015.038.017.035.016.035.015.035.012.035.016.036.017.038.015.035.016.035.017.036.015.035.016.034.012.038.015.035.016.036.017.035.015.035.015.035.016.038.017.035.011.035.017.034.015.036.016.035.017.038.016.035.015.036.017.035.011.034.016.035.016.039.016.035.015.035.017.036.016.034.015.034.011.038.016.035.015.035.016.036h-.105zm-3.38-.355l-.03.023-.027.018-.031.023-.03.02-.03.022-.032.019-.03.019-.036.019-.036.019-.035.019-.035.015-.036.019-.038.015-.035.015-.038.015-.035.015-.036.012-.035.011-.035.012-.038.01-.035.012-.038.008-.036.007-.038.008-.038.008h-.605l-.038-.008-.038-.008-.035-.007-.038-.008-.035-.011-.038-.008-.035-.011-.036-.015-.035-.012-.038-.015-.035-.015-.036-.015-.035-.015-.035-.02-.03-.018-.036-.02-.03-.018-.03-.019-.032-.023-.03-.022-.03-.023-.027-.023-.027-.023-.027-.026-.026-.023-.027-.026-.026-.027-.024-.026-.023-.03-.024-.027-.019-.03-.023-.031-.019-.03-.018-.03-.02-.036-.018-.03-.015-.036-.017-.035-.015-.035-.016-.034-.012-.03-.016-.036-.008-.036-.011-.034-.008-.038-.011-.035-.008-.038v-.035l-.007-.038v-.427l.007-.038v-.038l.008-.035.011-.038.008-.038.011-.035.012-.038.01-.036.016-.038.017-.034.016-.035.015-.035.015-.036.02-.035.018-.03.019-.03.019-.031.019-.03.023-.03.024-.031.022-.03.024-.027.027-.026.024-.027.026-.026.027-.027.027-.023.03-.026.026-.023.03-.023.031-.018.03-.023.03-.02.03-.018.036-.02.036-.018.035-.019.035-.015.036-.015.038-.02.03-.01.038-.012.035-.015.036-.008.035-.011.038-.008.035-.011.038-.008h.038l.038-.007h.481l.043.007h.036l.037.008.038.008.036.007.035.008.035.007.036.011.035.008.03.011.036.012.035.015.036.015.035.015.035.02.036.014.03.02.035.018.03.02.036.018.03.023.03.019.031.023.03.022.03.027.03.023-.023.03-.027.027-.024.03-.026.03-.024.03-.023.027-.026.03-.023.03-.024.027-.027.03-.024.03-.026.031-.024.027-.023.03-.026.03-.023.03-.027.027-.022.03-.03-.022-.031-.027-.03-.019-.03-.023-.03-.019-.031-.019-.03-.018-.036-.02-.032-.014-.03-.016-.03-.011-.036-.011-.035-.012-.035-.007-.038-.008-.038-.008H4.43l-.038.008-.035.008-.036.011-.035.011-.035.016-.036.015-.03.019-.03.019-.032.018-.026.023-.027.023-.027.023-.024.026-.026.027-.024.03-.02.027-.018.03-.019.035-.019.03-.016.036-.012.035-.016.036-.011.038-.008.038-.008.034-.007.041v.277l.007.034.008.035.008.035.01.035.012.03.017.038.016.036.02.035.018.03.019.03.023.03.024.027.026.027.024.026.027.023.031.023.03.023.03.018.032.02.036.015.035.015.036.015.038.011.037.012.038.007.038.008h.295l.037-.008.038-.007.038-.012.036-.007.035-.015.03-.016.036-.015.026-.015.046-.02v-.348h-.564v-.554H5.78v1.24l-.038.012zM4.51 8.34h1.67V7.065H4.51V4.462h1.74V3.187H3.091v9.2h3.18v-1.275h-1.76V8.341zm11.958.277v2.076c0 .369-.172.538-.53.538h-.265a.47.47 0 01-.543-.538v-5.81c0-.37.172-.538.543-.538h.239a.466.466 0 01.53.538v1.802h1.39v-1.88a1.494 1.494 0 00-1.71-1.69h-.689a1.516 1.516 0 00-1.723 1.708v5.937a1.516 1.516 0 001.723 1.708h.703a1.516 1.516 0 001.723-1.708V8.62l-1.391-.002zm-4.923 3.773h1.419v-9.2h-1.419v9.2zM9.489 7.272c0 .369-.172.538-.53.538h-.583V4.42h.584c.358 0 .529.171.529.538v2.314zm-.306-4.088H6.958v9.2h1.418V9.045h.809a1.516 1.516 0 001.723-1.708V4.892a1.516 1.516 0 00-1.723-1.713" fill="#fff"/><path fill-rule="evenodd" clip-rule="evenodd" d="M6.437 20.706h8.112l-4.138 1.352-3.974-1.352z" fill="#fff"/><path fill-rule="evenodd" clip-rule="evenodd" d="M17.88 1.603H3.072c-1.2 0-1.642.443-1.642 1.642v14.489c0 .126.005.253.017.378a1.26 1.26 0 00.277.806c.024.028.273.214.273.214.134.066.225.112.379.174l7.292 3.054c.246.148.526.228.812.236.287-.008.566-.088.813-.236l7.292-3.054c.151-.06.242-.112.379-.174 0 0 .252-.184.273-.214.182-.228.28-.513.276-.805.012-.126.018-.253.018-.38V3.246c0-1.201-.444-1.642-1.642-1.642" fill="#2F2D2E"/><path d="M16.89 16.17v.07l-.006.035-.01.034-.006.03-.01.034-.014.03-.014.027-.014.03-.016.027-.017.026-.02.027-.016.026-.02.024-.024.024-.02.02-.027.024-.024.02-.027.02-.026.017-.027.02-.03.017-.03.014-.03.016-.034.014-.032.014-.035.01-.032.01-.03.01-.033.007-.03.006-.03.006-.034.007h-.479l-.034-.007h-.033l-.034-.006-.033-.006-.032-.007-.033-.006-.034-.01-.03-.006-.034-.01-.034-.01-.03-.014-.033-.01-.03-.01-.034-.015-.03-.014-.03-.013-.03-.017-.03-.014-.03-.016-.027-.017-.03-.016-.027-.016-.026-.017-.027-.02-.026-.02-.027-.02-.027-.02-.024-.02-.026-.025.02-.026.024-.024.02-.027.024-.026.02-.024.02-.027.025-.026.02-.024.024-.027.02-.024.024-.026.02-.027.02-.024.025-.027.02-.026.024-.024.02-.027.026.02.03.02.027.021.03.02.027.017.03.02.027.016.03.014.027.016.03.015.03.013.03.014.03.01.03.014.033.01.034.01.03.01.033.007.033.006.033.006h.037l.034.007h.18l.033-.007.03-.006.03-.006.026-.01.024-.014.027-.02.02-.024.014-.027.01-.03v-.084l-.014-.034-.016-.024-.024-.02-.027-.02-.027-.014-.029-.014-.034-.014-.039-.016-.024-.007-.026-.006-.03-.01-.03-.006-.034-.01-.034-.007-.037-.01-.034-.006-.036-.01-.033-.007-.034-.01-.033-.006-.034-.01-.03-.01-.033-.007-.03-.01-.03-.01-.03-.01-.037-.014-.032-.014-.035-.013-.034-.014-.029-.017-.034-.016-.026-.017-.03-.016-.027-.02-.027-.017-.024-.02-.024-.024-.024-.024-.02-.024-.02-.024-.017-.024-.016-.026-.016-.03-.014-.025-.01-.026-.01-.03-.01-.027-.007-.034-.006-.03v-.28l.006-.03.006-.03.01-.03.007-.03.014-.031.014-.03.013-.03.017-.031.016-.03.02-.027.02-.027.025-.026.024-.024.024-.027.026-.024.024-.016.027-.02.026-.02.027-.017.03-.016.03-.014.03-.017.03-.014.033-.01.033-.013.03-.01.026-.007.03-.006.031-.006.033-.007.03-.006h.417l.034.006h.037l.034.007.03.006.033.006.033.006.03.007.034.01.03.01.03.006.034.014.03.01.03.014.03.014.034.014.029.016.026.014.03.017.03.016.027.017.03.02.027.016.027.02.026.02.027.02-.02.027-.017.027-.02.026-.02.027-.02.03-.017.027-.02.026-.02.027-.017.026-.02.027-.02.026-.017.027-.02.03-.02.027-.02.026-.017.027-.02.026-.026-.02-.03-.016-.026-.017-.027-.02-.03-.014-.026-.016-.03-.014-.026-.014-.03-.014-.027-.014-.029-.01-.026-.014-.037-.01-.033-.01-.033-.01-.034-.006-.033-.007-.032-.006h-.17l-.036.006-.034.007-.03.006-.026.014-.024.014-.03.026-.02.03-.014.03v.085l.016.037.014.02.024.024.03.017.027.016.033.014.036.014.04.014.026.006.026.01.03.007.03.01.034.006.037.01.036.01.037.01.036.006.035.01.036.01.034.007.033.01.033.01.029.01.034.01.03.01.03.01.036.015.033.016.033.014.034.016.03.017.03.016.027.017.026.02.027.016.027.024.026.024.024.027.024.024.02.026.02.03.017.027.016.03.014.027.01.03.01.03.007.03.006.035.006.034v.152l-.007.038zm-2.332.668h-1.913v-2.433h1.924v.552h-1.288v.398h1.158v.518h-1.158v.414h1.305v.55h-.028zm-2.432 0h-.609v-1.439l-.016.027-.02.03-.017.027-.02.026-.016.03-.02.027-.017.026-.016.03-.02.027-.017.027-.02.026-.017.03-.02.027-.016.027-.017.03-.02.026-.016.027-.02.03-.017.027-.02.026-.017.03-.016.027-.02.027-.017.03-.02.027-.016.026-.02.027-.017.03-.016.027-.02.026-.017.03-.02.027-.017.026-.02.03-.016.027h-.014l-.02-.03-.017-.027-.02-.03-.016-.026-.02-.03-.017-.027-.02-.03-.017-.027-.02-.03-.016-.027-.02-.03-.017-.027-.02-.03-.017-.027-.02-.03-.016-.027-.02-.03-.02-.027-.017-.03-.02-.026-.017-.03-.02-.027-.016-.03-.02-.027-.017-.03-.02-.027-.016-.03-.02-.027-.017-.03-.02-.026-.017-.03-.02-.027-.016-.03-.02-.027v1.432h-.632v-2.433h.682l.016.027.017.03.02.027.016.03.017.027.016.03.017.027.02.03.016.026.017.027.016.03.017.027.02.03.016.027.016.03.017.026.02.027.017.03.016.027.016.03.017.027.02.03.017.026.016.03.016.027.017.027.02.03.016.027.017.03.016.027.017.03.02.026.016.03.017.026.016-.027.017-.029.02-.026.016-.03.017-.027.016-.03.02-.027.017-.03.016-.027.017-.026.02-.03.016-.027.016-.03.017-.027.02-.03.017-.027.016-.03.016-.027.017-.026.02-.03.016-.027.017-.03.016-.027.02-.03.017-.027.016-.026.017-.03.02-.027.016-.03.017-.027.016-.03.02-.027.017-.03.016-.027h.682v2.433l-.025.003zm-3.861-1.003l-.01-.03-.014-.035-.014-.03-.01-.03-.014-.03-.014-.035-.01-.03-.014-.03-.014-.03-.01-.03-.014-.035-.01-.03-.014-.03-.014-.031-.01-.03-.014-.034-.014-.03-.01-.031-.014-.03-.014-.034-.01-.03-.014-.031-.014.03-.01.03-.014.035-.013.03-.01.03-.014.03-.014.035-.014.03-.01.03-.014.03-.014.031-.01.034-.014.03-.014.03-.01.031-.014.03-.014.035-.014.03-.01.03-.014.03-.014.035-.01.03-.014.03h.564l.005-.03zm1.044 1.003h-.651l-.014-.03-.01-.03-.014-.031-.014-.034-.01-.03-.014-.03-.014-.031-.01-.03-.014-.03-.014-.031-.01-.03-.014-.035-.014-.03-.01-.03-.014-.03h-.955l-.014.03-.01.03-.014.03-.014.035-.01.03-.014.03-.014.03-.01.03-.014.031-.013.03-.01.03-.014.035-.014.03-.01.03-.014.03h-.676l.014-.03.014-.03.013-.03.014-.034.01-.03.014-.03.014-.031.014-.03.014-.03.014-.035.014-.03.014-.03.01-.03.014-.031.014-.03.014-.035.013-.03.014-.03.014-.03.014-.03.01-.031.014-.034.014-.03.014-.03.014-.031.014-.03.014-.03.014-.035.01-.03.014-.03.013-.03.014-.031.014-.03.014-.035.014-.03.014-.03.01-.03.014-.03.014-.031.014-.034.014-.03.013-.031.014-.03.014-.03.01-.03.014-.03.014-.034.014-.03.014-.03.014-.031.014-.03.014-.03.01-.035.014-.03.014-.03.013-.03.014-.031.014-.03.014-.034.014-.03.01-.031.014-.03.014-.03.014-.031.014-.034.014-.03.014-.03.013-.031.01-.03.014-.03.014-.035.014-.03.014-.03.014-.03.014-.031.014-.03.01-.035.014-.03.014-.03.014-.03h.615l.014.03.013.03.014.03.014.035.01.03.014.03.014.03.014.03.014.031.014.034.014.03.014.03.01.031.014.03.014.03.013.035.014.03.014.03.014.03.014.031.01.03.014.035.014.03.014.03.014.03.014.03.013.031.014.034.01.03.014.03.014.031.014.03.014.03.014.035.014.03.014.03.01.03.014.03.014.03.014.03.013.035.014.03.014.03.014.03.01.031.014.03.014.034.014.03.014.031.014.03.014.03.014.031.01.034.013.03.014.03.014.031.014.03.014.03.014.035.014.03.01.03.014.03.014.031.014.03.014.034.013.03.014.031.014.03.01.03.014.031.014.034.014.03.014.03.014.031.014.03.014.03.01.035.014.03.014.03.013.03h-.1zm-2.914-.311l-.026.02-.024.017-.027.02-.026.016-.027.02-.026.017-.027.016-.03.017-.03.016-.03.017-.03.014-.029.016-.033.014-.029.014-.034.014-.03.014-.03.01-.03.01-.03.01-.033.01-.029.01-.034.006-.03.007-.033.006-.034.006h-.522l-.034-.006-.033-.006-.03-.007L5 16.84l-.03-.01-.033-.006-.03-.01-.031-.014-.03-.01-.033-.014-.03-.014-.03-.014-.03-.014-.03-.016-.027-.017-.03-.016-.027-.017-.026-.016-.027-.02-.026-.02-.027-.02-.024-.021-.024-.02-.024-.024-.024-.02-.024-.024-.024-.024-.02-.024-.02-.027-.02-.024-.017-.026-.02-.027-.016-.026-.017-.027-.016-.03-.017-.027-.014-.03-.013-.03-.014-.03-.014-.031-.01-.027-.014-.03-.007-.03-.01-.03-.006-.035-.01-.03-.006-.034v-.03l-.007-.033v-.387l.007-.033v-.034l.006-.03.01-.034.006-.034.01-.03.01-.035.01-.03.015-.034.013-.03.014-.03.014-.031.014-.03.017-.03.016-.027.016-.027.017-.026.016-.027.02-.026.02-.027.02-.026.021-.024.024-.024.02-.024.024-.024.024-.024.024-.02.027-.025.024-.02.026-.02.027-.016.026-.02.027-.017.026-.017.03-.016.031-.016.03-.017.03-.014.03-.014.034-.016.026-.01.033-.01.03-.014.03-.006.029-.01.034-.007.03-.01.033-.006h.033l.034-.007h.415l.037.007h.03l.033.006.034.006.03.007.031.006.03.006.03.01.03.007.026.01.03.01.03.014.031.014.03.014.03.016.03.014.026.016.03.017.026.016.03.017.027.02.026.016.027.02.026.02.027.025.026.02-.02.026-.024.024-.02.027-.024.026-.02.027-.02.024-.025.027-.02.026-.02.024-.024.027-.02.026-.024.027-.02.024-.02.026-.025.027-.02.026-.024.024-.02.027-.027-.02-.026-.024-.026-.017-.027-.02-.027-.016-.026-.017-.027-.016-.03-.017-.026-.014-.027-.014-.027-.01-.03-.01-.029-.01-.03-.006-.033-.007-.034-.006h-.239l-.033.006-.03.007-.03.01-.03.01-.03.014-.03.014-.027.016-.026.017-.027.016-.024.02-.024.02-.024.02-.02.025-.024.024-.02.026-.017.024-.016.027-.016.03-.017.027-.014.03-.01.03-.014.03-.01.035-.006.034-.006.03-.007.037v.242l.007.03.006.03.006.031.01.03.01.027.014.034.014.03.017.03.016.027.016.027.02.026.021.024.024.024.02.024.024.02.027.02.026.021.027.016.026.017.03.014.03.014.03.014.034.01.033.01.034.006.033.006h.252l.035-.006.034-.006.033-.01.029-.007.03-.014.026-.013.03-.014.023-.014.027-.017v-.304h-.485v-.488h1.099v1.087l-.018.021zM5.324 8.903h1.443V7.788H5.324V5.514h1.5V4.398H4.099v8.05h2.747v-1.115H5.324v-2.43zm10.33.242v1.818c0 .322-.149.47-.457.47h-.222a.41.41 0 01-.47-.47V5.88a.412.412 0 01.47-.471h.206c.308 0 .457.15.457.47v1.578h1.202V5.815a1.298 1.298 0 00-1.475-1.484h-.595a1.316 1.316 0 00-1.437.896 1.315 1.315 0 00-.051.605v5.198a1.315 1.315 0 00.369 1.121 1.313 1.313 0 001.119.38h.606a1.314 1.314 0 001.12-.38 1.317 1.317 0 00.368-1.121V9.155l-1.21-.01zm-4.254 3.3h1.225v-8.05H11.4v8.05zM9.623 7.97c0 .323-.15.473-.458.473H8.66V5.476h.505c.309 0 .458.15.458.471v2.024zm-.264-3.577H7.435v8.05h1.223v-2.92h.698a1.315 1.315 0 001.12-.38 1.314 1.314 0 00.368-1.12V5.88a1.314 1.314 0 00-.369-1.122 1.313 1.313 0 00-1.119-.379" fill="#fff"/><path fill-rule="evenodd" clip-rule="evenodd" d="M6.989 19.723h7.01l-3.578 1.18-3.432-1.18z" fill="#fff"/></g><defs><clipPath id="clip0_13721_517"><path fill="#fff" d="M0 0h20.951v24H0z"/></clipPath></defs></svg>