<svg width="129" height="129" fill="none" xmlns="http://www.w3.org/2000/svg"><path opacity=".4" d="M64.305 128.611c35.515 0 64.306-28.79 64.306-64.305C128.611 28.79 99.821 0 64.306 0 28.79 0 0 28.79 0 64.305c0 35.515 28.79 64.306 64.305 64.306z" fill="#fff"/><path opacity=".3" d="M64.5 117c28.995 0 52.5-23.505 52.5-52.5S93.495 12 64.5 12 12 35.505 12 64.5 35.505 117 64.5 117z" fill="#fff"/><path class="pause" fill-rule="evenodd" clip-rule="evenodd" d="M54 44a2 2 0 00-2 2v37a2 2 0 002 2h6a2 2 0 002-2V46a2 2 0 00-2-2h-6zm16 0a2 2 0 00-2 2v37a2 2 0 002 2h6a2 2 0 002-2V46a2 2 0 00-2-2h-6z" fill="#141821"/></svg>