<svg width="24" height="24" fill="none" xmlns="http://www.w3.org/2000/svg"><g clip-path="url(#clip0_13721_536)"><path d="M.666 15.398c1.46 4.868 5.976 8.417 11.319 8.417C18.51 23.815 23.8 18.525 23.8 12 23.8 5.475 18.51.185 11.985.185 5.723.185.6 5.055.195 11.215c.766 1.284 1.063 2.078.47 4.183h.001z" fill="#fff"/><path d="M11.376 9.04l.001.059-2.89 4.2a3.241 3.241 0 00-1.938.54L.2 11.222s-.147 2.417.465 4.218l4.489 1.852a3.262 3.262 0 001.935 2.315 3.28 3.28 0 004.537-3.116l4.133-2.955.101.002a4.497 4.497 0 000-8.992 4.496 4.496 0 00-4.488 4.494h.004zm-.694 8.511a2.527 2.527 0 01-3.306 1.364 2.525 2.525 0 01-1.301-1.241l1.461.605a1.862 1.862 0 002.437-2.43 1.865 1.865 0 00-1.006-1.01l-1.514-.627a2.513 2.513 0 011.865.029c.628.26 1.108.748 1.365 1.373a2.52 2.52 0 01-.004 1.937m5.185-5.514a2.998 2.998 0 01-2.99-2.996 2.998 2.998 0 012.99-2.995 2.998 2.998 0 012.991 2.995 2.998 2.998 0 01-2.99 2.996zm-2.24-3a2.248 2.248 0 012.245-2.251 2.25 2.25 0 010 4.5 2.248 2.248 0 01-2.245-2.25z" fill="#383D45"/></g><defs><clipPath id="clip0_13721_536"><path fill="#fff" d="M0 0h24v24H0z"/></clipPath></defs></svg>