<svg width="32" height="32" fill="none" xmlns="http://www.w3.org/2000/svg"><path fill-rule="evenodd" clip-rule="evenodd" d="M30.182 7.434a1.212 1.212 0 011.18 1.485l-2.827 12.242c-.128.551-.617.94-1.181.94h-16.97c-.578 0-1.077-.41-1.189-.977L5.638 3.145 1.6 2.405A1.212 1.212 0 112.037.02l4.849.89c.489.089.874.468.97.956l1.102 5.568h21.224zM11.38 19.677h15.01l2.267-9.818H9.437l1.943 9.818zm.782 4.243a4.045 4.045 0 00-4.04 4.04 4.045 4.045 0 004.04 4.04 4.045 4.045 0 004.04-4.04 4.045 4.045 0 00-4.04-4.04zm0 5.656a1.618 1.618 0 01-1.616-1.616c0-.891.725-1.616 1.616-1.616.89 0 1.616.725 1.616 1.616 0 .892-.725 1.616-1.616 1.616zm11.96-5.656a4.045 4.045 0 00-4.041 4.04A4.045 4.045 0 0024.12 32a4.045 4.045 0 004.04-4.04 4.045 4.045 0 00-4.04-4.04zm0 5.656a1.618 1.618 0 01-1.617-1.616c0-.891.725-1.616 1.616-1.616a1.617 1.617 0 010 3.232z" fill="#fff"/></svg>