<svg width="30" height="21" fill="none" xmlns="http://www.w3.org/2000/svg"><g clip-path="url(#clip0_13721_540)"><path d="M14.996 0S5.61 0 3.262.618A3.836 3.836 0 00.618 3.286C0 5.633 0 10.5 0 10.5s0 4.892.618 7.214a3.759 3.759 0 002.644 2.644C5.633 21 14.996 21 14.996 21s9.389 0 11.736-.617a3.759 3.759 0 002.644-2.644c.617-2.348.617-7.214.617-7.214s.025-4.892-.617-7.239A3.759 3.759 0 0026.732.642C24.385 0 14.996 0 14.996 0zm-2.989 6.004l7.807 4.496-7.807 4.496V6.004z" fill="#fff"/></g><defs><clipPath id="clip0_13721_540"><path fill="#fff" d="M0 0h29.993v21H0z"/></clipPath></defs></svg>